<?xml version="1.0" standalone="no"?>
<!DOCTYPE svg PUBLIC "-//W3C//DTD SVG 20010904//EN"
 "http://www.w3.org/TR/2001/REC-SVG-20010904/DTD/svg10.dtd">
<svg version="1.0" xmlns="http://www.w3.org/2000/svg"
 width="421.000000pt" height="421.000000pt" viewBox="0 0 421.000000 421.000000"
 preserveAspectRatio="xMidYMid meet">
<metadata>
Created by potrace 1.14, written by Peter Selinger 2001-2017
</metadata>
<g transform="translate(0.000000,421.000000) scale(0.100000,-0.100000)"
fill="#000000" stroke="none">
<path d="M2164 3590 c-20 -8 -57 -48 -80 -86 -10 -15 -14 -17 -25 -6 -24 22
-48 13 -74 -28 -29 -47 -51 -58 -74 -42 -48 35 -80 45 -105 34 -20 -9 -33 -8
-63 4 -59 25 -148 15 -203 -22 -25 -17 -62 -37 -84 -44 -56 -18 -113 -75 -151
-150 -20 -39 -55 -87 -85 -116 -69 -65 -93 -108 -139 -250 -22 -65 -55 -153
-74 -195 -38 -80 -53 -134 -88 -319 -19 -99 -21 -134 -15 -255 4 -77 14 -192
24 -255 l17 -114 260 3 c143 1 262 5 265 7 6 7 -22 24 -31 18 -4 -2 -10 3 -13
12 -3 8 -10 12 -16 9 -5 -3 -10 -1 -10 5 0 7 -11 21 -25 31 -28 23 -81 127
-90 179 l-6 35 24 -40 c13 -22 29 -39 35 -37 7 1 12 -4 12 -10 0 -16 45 50 54
79 4 14 12 20 22 16 10 -4 14 3 14 23 0 36 31 103 56 126 30 26 89 48 131 48
l38 0 -41 -19 c-53 -24 -86 -76 -86 -135 0 -89 57 -146 146 -146 86 0 145 60
146 147 l1 38 38 -74 c42 -83 48 -81 62 19 6 46 7 42 4 -27 -7 -130 -67 -227
-175 -281 l-45 -22 34 0 c42 0 90 29 137 83 l36 42 -17 -35 c-10 -19 -29 -47
-43 -62 l-26 -28 30 0 c47 0 107 81 120 162 9 53 60 99 117 105 39 5 51 1 83
-23 39 -30 64 -76 64 -119 0 -14 4 -25 9 -25 5 0 13 -9 16 -20 13 -40 56 -80
86 -80 l30 0 -21 23 c-45 47 -40 58 7 19 37 -32 58 -42 84 -42 l34 0 -51 30
c-28 16 -64 44 -79 62 -31 36 -69 116 -79 163 -6 30 -6 30 11 9 17 -21 18 -20
52 50 l35 71 7 -55 c6 -48 13 -60 49 -92 37 -33 49 -38 93 -38 90 0 149 57
149 145 0 72 -31 116 -99 141 l-38 13 47 1 c57 0 95 -13 130 -47 31 -29 63
-114 55 -144 -4 -16 -3 -18 8 -9 18 15 26 10 50 -37 34 -66 40 -67 75 -25 l31
37 -12 -35 c-6 -19 -13 -42 -16 -50 -3 -8 -7 -20 -9 -27 -3 -18 -49 -75 -86
-108 -36 -31 -42 -35 -58 -35 -5 0 -10 -4 -10 -9 0 -6 105 -11 254 -13 254 -3
255 -3 280 -27 l26 -24 0 24 c1 33 18 193 27 254 4 28 7 109 7 180 -1 110 -5
143 -28 215 -15 47 -31 116 -37 154 -11 72 -70 268 -133 439 -120 331 -239
474 -419 507 -28 6 -85 27 -126 48 -72 36 -77 37 -185 38 -81 0 -119 4 -141
16 -41 21 -86 29 -111 18z m471 -604 c34 -8 98 -59 88 -70 -3 -3 2 -6 13 -6
16 0 17 -2 4 -10 -9 -6 -11 -13 -5 -17 16 -12 16 -41 2 -153 -7 -58 -13 -129
-13 -157 1 -38 -3 -54 -14 -58 -13 -5 -13 -7 0 -15 13 -9 13 -10 0 -10 -12 0
-12 -2 -2 -9 24 -15 -37 -23 -75 -10 -20 6 -63 9 -97 7 -74 -7 -202 -44 -213
-62 -30 -52 -368 -62 -418 -13 -7 7 -5 7 5 3 8 -4 6 0 -5 9 -37 30 -155 59
-240 59 -44 0 -91 -4 -105 -7 -18 -5 -32 -2 -50 14 -14 11 -19 18 -11 14 10
-6 12 -2 7 12 -4 14 13 59 53 138 93 182 138 232 265 294 l81 39 150 -7 c83
-4 182 -3 220 2 39 4 100 9 137 11 37 1 70 5 73 7 7 7 115 4 150 -5z m-1103
-33 c-6 -2 -10 -9 -6 -14 3 -5 0 -9 -6 -9 -6 0 -8 -4 -5 -10 3 -5 -1 -10 -10
-10 -10 0 -14 -5 -10 -12 4 -7 -1 -4 -10 7 -14 18 -14 21 7 37 13 10 30 17 38
17 10 0 11 -2 2 -6z m-52 -68 c7 -9 8 -15 2 -15 -5 0 -12 7 -16 15 -3 8 -4 15
-2 15 2 0 9 -7 16 -15z m-10 -65 c0 -5 -2 -10 -4 -10 -3 0 -8 5 -11 10 -3 6
-1 10 4 10 6 0 11 -4 11 -10z m163 -407 c-7 -2 -19 -2 -25 0 -7 3 -2 5 12 5
14 0 19 -2 13 -5z m980 0 c-7 -2 -19 -2 -25 0 -7 3 -2 5 12 5 14 0 19 -2 13
-5z m-893 -38 c25 -8 61 -29 80 -45 l35 -30 -70 35 c-54 27 -84 36 -130 37
-68 2 -158 -19 -148 -35 4 -6 0 -8 -11 -4 -10 4 -33 -4 -59 -19 l-42 -27 24
27 c26 28 94 64 145 77 41 10 120 3 176 -16z m972 8 c39 -9 72 -23 75 -30 3
-7 11 -13 17 -13 7 0 28 -17 47 -37 30 -33 30 -35 4 -12 -36 31 -90 54 -105
44 -6 -3 -9 -1 -8 6 4 17 -36 27 -117 28 -67 1 -114 -10 -162 -37 -13 -7 -23
-8 -23 -3 0 11 80 51 124 62 49 11 74 10 148 -8z m-316 -101 c-17 -16 -18 -16
-5 5 7 12 15 20 18 17 3 -2 -3 -12 -13 -22z m-221 9 c-3 -5 3 -12 14 -16 10
-3 26 -14 36 -25 10 -11 27 -20 38 -20 17 0 18 -2 6 -17 -8 -9 -9 -14 -4 -11
6 4 12 -4 13 -18 1 -13 -3 -24 -8 -24 -6 0 -8 -11 -4 -27 7 -25 6 -27 -9 -14
-9 7 -15 16 -13 20 3 4 -3 7 -12 8 -9 1 -36 7 -59 13 -52 15 -100 7 -146 -24
l-35 -24 -4 29 c-3 16 1 38 8 48 12 16 11 18 -2 17 -9 0 -23 10 -31 24 l-15
25 22 -25 c17 -19 20 -21 16 -6 -6 17 -5 17 11 5 15 -12 16 -12 10 5 -7 17 -5
17 10 5 10 -7 15 -10 11 -5 -13 16 74 66 115 66 21 0 36 -4 32 -9z m-225 -145
c-1 -6 -7 4 -15 23 -8 18 -15 38 -15 45 1 6 7 -4 15 -23 8 -18 15 -38 15 -45z
m380 33 c-6 -11 -15 -48 -19 -82 -8 -62 -8 -62 -10 -14 -1 44 20 117 34 117 3
0 1 -9 -5 -21z m-656 -14 c9 -25 -5 -45 -30 -45 -14 0 -27 7 -30 15 -10 25 4
45 30 45 13 0 26 -7 30 -15z m851 -15 c0 -18 -6 -26 -23 -28 -24 -4 -38 18
-28 44 3 9 15 14 28 12 17 -2 23 -10 23 -28z m-325 -40 c46 -23 78 -66 63 -81
-7 -7 -23 -2 -48 15 -46 32 -96 34 -150 6 -73 -37 -91 1 -23 50 49 36 100 39
158 10z m757 -52 c-3 -8 -6 -5 -6 6 -1 11 2 17 5 13 3 -3 4 -12 1 -19z m-1182
-67 c3 -5 1 -12 -5 -16 -5 -3 -10 1 -10 9 0 18 6 21 15 7z m865 0 c0 -12 -20
-25 -27 -18 -7 7 6 27 18 27 5 0 9 -4 9 -9z"/>
<path d="M2088 2283 c7 -3 16 -2 19 1 4 3 -2 6 -13 5 -11 0 -14 -3 -6 -6z"/>
<path d="M2235 2180 c3 -5 8 -10 11 -10 2 0 4 5 4 10 0 6 -5 10 -11 10 -5 0
-7 -4 -4 -10z"/>
<path d="M1984 1836 c-13 -14 -44 -72 -44 -81 0 -3 13 -5 30 -5 25 0 33 7 50
42 15 32 17 44 8 50 -18 11 -31 9 -44 -6z"/>
<path d="M2195 1841 c-3 -6 0 -28 7 -50 12 -37 16 -41 45 -41 38 0 37 -3 18
43 -18 44 -56 70 -70 48z"/>
<path d="M905 687 c-41 -72 -71 -142 -116 -277 l-38 -115 192 -8 c215 -9 2492
-5 2501 4 6 6 -47 175 -81 259 -10 25 -34 74 -52 108 -44 81 -46 75 -56 -133
-7 -157 -8 -160 -34 -180 -26 -20 -41 -20 -1096 -20 -588 0 -1081 2 -1094 5
-13 2 -34 18 -46 35 -21 28 -24 44 -31 203 -4 94 -10 172 -13 172 -3 0 -19
-24 -36 -53z"/>
</g>
</svg>
